<?xml version="1.0" encoding="UTF-8" standalone="no"?>
<svg
   xmlns:dc="http://purl.org/dc/elements/1.1/"
   xmlns:cc="http://creativecommons.org/ns#"
   xmlns:rdf="http://www.w3.org/1999/02/22-rdf-syntax-ns#"
   xmlns:svg="http://www.w3.org/2000/svg"
   xmlns="http://www.w3.org/2000/svg"
   viewBox="0 0 101 111.85666"
   class="css-1j8o68f"
   version="1.1"
   id="svg6"
   width="101"
   height="111.85666">
  <metadata
     id="metadata10">
    <rdf:RDF>
      <cc:Work
         rdf:about="">
        <dc:format>image/svg+xml</dc:format>
        <dc:type
           rdf:resource="http://purl.org/dc/dcmitype/StillImage" />
        <dc:title></dc:title>
      </cc:Work>
    </rdf:RDF>
  </metadata>
  <defs
     id="SvgjsDefs1689">
    <rect
       x="120.24027"
       y="30.916012"
       width="151.93346"
       height="46.312141"
       id="rect841" />
  </defs>
  <g
     id="SvgjsG1690"
     featurekey="odWo6G-0"
     transform="matrix(1.6329441,0,0,1.6329441,-23.808113,-17.635797)"
     fill="#01aac1"
     style="fill:#3b82f6;fill-opacity:1">
    <path
       d="m 75,22.2 c 0,0 -7.7,-2 -15.4,-5.1 C 52.7,14.3 47,10.8 47,10.8 c 0,0 -5.6,3.6 -12.6,6.3 -7.6,3.1 -15.3,5 -15.4,5.1 -0.6,3.4 -0.9,7 -0.9,10.6 0,0.8 0,1.2 0.1,2 0.4,4.3 8,2.2 10.7,1.2 0.3,-0.1 0.7,-0.3 1,-0.4 1,-0.4 2,-0.8 3.1,-1.3 2.1,-0.9 4.3,-2 6.6,-3.2 3.3,-1.8 6.7,-3.8 9.6,-6.1 -4.3,5.8 -13.5,12.7 -23.8,17.1 -2.6,1.1 -6.2,2.5 -8.7,2.4 -3,-0.1 -2,0.4 -1.8,0.5 3.2,1.6 5,3.9 5.9,6 0.6,1.4 2.7,3.6 14,-2.2 6.4,-3.3 14.6,-8 22.9,-14.6 0.3,-0.2 0.6,-0.5 0.9,-0.7 1.8,-1.5 3.7,-3 5.5,-4.6 -4.3,8.7 -16.4,18.8 -31,26.3 -4.6,2.4 -5.8,2.7 -7.8,3.4 -2.7,0.9 -5.3,0.5 -5.3,1 -0.1,0.7 3.4,1.4 7,5 3.3,3.3 11.6,-0.5 15.1,-2.4 C 46,60 53,55.6 57.7,51.5 c 0.9,-0.8 1.7,-1.6 2.5,-2.4 -3.5,8.3 -11,14.3 -20.9,19.9 -2.5,1.4 -6.7,2.6 -8.5,3.1 -0.5,0.2 -1.2,0.2 -1.2,0.5 0,0.6 4,1 6.6,2.4 3.6,1.9 6.1,2.9 7,3.2 1.2,0.5 2.5,0.8 3.8,1.1 C 64.2,75.5 75.8,55.8 75.8,32.7 75.9,29.2 75.6,25.6 75,22.2 Z"
       id="path3"
       style="fill:#3b82f6;fill-opacity:1" />
  </g>
  <text
     xml:space="preserve"
     id="text839"
     style="font-style:normal;font-weight:normal;font-size:40px;line-height:1.25;font-family:sans-serif;letter-spacing:0px;word-spacing:0px;white-space:pre;shape-inside:url(#rect841);fill:#000000;fill-opacity:1;stroke:none;" />
</svg>
