<?xml version="1.0" encoding="UTF-8" standalone="no"?>
<svg
   xmlns:dc="http://purl.org/dc/elements/1.1/"
   xmlns:cc="http://creativecommons.org/ns#"
   xmlns:rdf="http://www.w3.org/1999/02/22-rdf-syntax-ns#"
   xmlns:svg="http://www.w3.org/2000/svg"
   xmlns="http://www.w3.org/2000/svg"
   viewBox="0 0 550 111.85666"
   version="1.1"
   id="svg6"
   width="550"
   height="111.85666">
  <metadata
     id="metadata10">
    <rdf:RDF>
      <cc:Work
         rdf:about="">
        <dc:format>image/svg+xml</dc:format>
        <dc:type
           rdf:resource="http://purl.org/dc/dcmitype/StillImage" />
        <dc:title></dc:title>
      </cc:Work>
    </rdf:RDF>
  </metadata>
  <defs
     id="SvgjsDefs1689">
    <rect
       x="120.24027"
       y="30.916012"
       width="151.93346"
       height="46.312141"
       id="rect841" />
  </defs>
  <g
     id="SvgjsG1690"
     featurekey="odWo6G-0"
     transform="matrix(1.6329441,0,0,1.6329441,-23.808113,-17.635797)"
     fill="#01aac1"
     style="fill:#3b82f6;fill-opacity:1">
    <path
       d="m 75,22.2 c 0,0 -7.7,-2 -15.4,-5.1 C 52.7,14.3 47,10.8 47,10.8 c 0,0 -5.6,3.6 -12.6,6.3 -7.6,3.1 -15.3,5 -15.4,5.1 -0.6,3.4 -0.9,7 -0.9,10.6 0,0.8 0,1.2 0.1,2 0.4,4.3 8,2.2 10.7,1.2 0.3,-0.1 0.7,-0.3 1,-0.4 1,-0.4 2,-0.8 3.1,-1.3 2.1,-0.9 4.3,-2 6.6,-3.2 3.3,-1.8 6.7,-3.8 9.6,-6.1 -4.3,5.8 -13.5,12.7 -23.8,17.1 -2.6,1.1 -6.2,2.5 -8.7,2.4 -3,-0.1 -2,0.4 -1.8,0.5 3.2,1.6 5,3.9 5.9,6 0.6,1.4 2.7,3.6 14,-2.2 6.4,-3.3 14.6,-8 22.9,-14.6 0.3,-0.2 0.6,-0.5 0.9,-0.7 1.8,-1.5 3.7,-3 5.5,-4.6 -4.3,8.7 -16.4,18.8 -31,26.3 -4.6,2.4 -5.8,2.7 -7.8,3.4 -2.7,0.9 -5.3,0.5 -5.3,1 -0.1,0.7 3.4,1.4 7,5 3.3,3.3 11.6,-0.5 15.1,-2.4 C 46,60 53,55.6 57.7,51.5 c 0.9,-0.8 1.7,-1.6 2.5,-2.4 -3.5,8.3 -11,14.3 -20.9,19.9 -2.5,1.4 -6.7,2.6 -8.5,3.1 -0.5,0.2 -1.2,0.2 -1.2,0.5 0,0.6 4,1 6.6,2.4 3.6,1.9 6.1,2.9 7,3.2 1.2,0.5 2.5,0.8 3.8,1.1 C 64.2,75.5 75.8,55.8 75.8,32.7 75.9,29.2 75.6,25.6 75,22.2 Z"
       id="path3"
       style="fill:#3b82f6;fill-opacity:1" />
  </g>
  <text
     xml:space="preserve"
     id="text839"
     style="font-style:normal;font-weight:normal;font-size:40px;line-height:1.25;font-family:sans-serif;letter-spacing:0px;word-spacing:0px;white-space:pre;shape-inside:url(#rect841);fill:#000000;fill-opacity:1;stroke:none;" />
  <g
     aria-label="locksend"
     id="text847"
     style="font-style:normal;font-variant:normal;font-weight:500;font-stretch:normal;font-size:90.6667px;line-height:1.25;font-variant-ligatures:normal;font-variant-caps:normal;font-variant-numeric:normal;font-variant-east-asian:normal;letter-spacing:0px;word-spacing:0px">
    <path
       d="M 125.20481,87.492981 V 22.212955 h 11.60534 v 65.280026 z"
       style="font-style:normal;font-variant:normal;font-weight:bold;font-stretch:normal;font-size:90.6667px;fill:#334155;fill-opacity:1"
       id="path978" />
    <path
       d="m 170.26606,88.580981 q -6.528,0 -11.78667,-2.992001 -5.168,-2.992001 -8.25067,-8.25067 -2.992,-5.349335 -2.992,-12.330671 0,-6.981336 3.08267,-12.240005 3.08267,-5.349335 8.25067,-8.341337 5.25867,-2.992001 11.78667,-2.992001 6.43734,0 11.60534,2.992001 5.25867,2.992002 8.25067,8.341337 3.08267,5.258669 3.08267,12.240005 0,6.981336 -3.08267,12.330671 -2.992,5.258669 -8.25067,8.25067 -5.25867,2.992001 -11.69601,2.992001 z m 0,-10.064004 q 4.53334,0 7.88801,-3.354668 3.35466,-3.445334 3.35466,-10.15467 0,-6.709336 -3.35466,-10.064004 -3.35467,-3.445335 -7.79734,-3.445335 -4.624,0 -7.97867,3.445335 -3.264,3.354668 -3.264,10.064004 0,6.709336 3.264,10.15467 3.35467,3.354668 7.888,3.354668 z"
       style="font-style:normal;font-variant:normal;font-weight:bold;font-stretch:normal;font-size:90.6667px;fill:#334155;fill-opacity:1"
       id="path980" />
    <path
       d="m 225.66333,88.580981 q -6.89067,0 -12.14934,-2.992001 -5.25867,-2.992001 -8.34134,-8.341336 -2.992,-5.349336 -2.992,-12.240005 0,-6.89067 2.992,-12.240005 3.08267,-5.349335 8.34134,-8.341337 5.25867,-2.992001 12.14934,-2.992001 8.61333,0 14.50667,4.533335 5.89334,4.442669 7.52534,12.330672 h -12.24001 q -0.90667,-3.264001 -3.62667,-5.077336 -2.62933,-1.904 -6.256,-1.904 -4.80533,0 -8.16,3.626668 -3.35467,3.626668 -3.35467,10.064004 0,6.437336 3.35467,10.064004 3.35467,3.626668 8.16,3.626668 3.62667,0 6.256,-1.813334 2.72,-1.813334 3.62667,-5.168002 h 12.24001 q -1.632,7.616003 -7.52534,12.240005 -5.89334,4.624001 -14.50667,4.624001 z"
       style="font-style:normal;font-variant:normal;font-weight:bold;font-stretch:normal;font-size:90.6667px;fill:#334155;fill-opacity:1"
       id="path982" />
    <path
       d="M 258.0312,87.492981 V 22.212955 h 11.60534 v 38.533349 l 15.95734,-18.224007 h 13.78134 l -18.40535,20.490674 21.39735,24.48001 h -14.50668 l -18.224,-22.576009 v 22.576009 z"
       style="font-style:normal;font-variant:normal;font-weight:bold;font-stretch:normal;font-size:90.6667px;fill:#334155;fill-opacity:1"
       id="path984" />
    <path
       d="m 325.94044,88.580981 q -5.984,0 -10.51733,-1.904 -4.53334,-1.994668 -7.25334,-5.440002 -2.72,-3.445335 -3.264,-7.97867 h 11.696 q 0.544,2.629334 2.90134,4.533335 2.448,1.813334 6.256,1.813334 3.808,0 5.53067,-1.541334 1.81333,-1.541334 1.81333,-3.536001 0,-2.901335 -2.53866,-3.898669 -2.53867,-1.088 -7.07201,-2.085334 -2.90133,-0.634667 -5.89333,-1.541334 -2.992,-0.906667 -5.53067,-2.266667 -2.448,-1.450668 -3.98934,-3.626668 -1.54133,-2.266668 -1.54133,-5.530669 0,-5.984003 4.71467,-10.064004 4.80533,-4.080002 13.41867,-4.080002 7.97867,0 12.69334,3.717335 4.80533,3.717335 5.712,10.245337 h -10.97067 q -0.99733,-4.986668 -7.52534,-4.986668 -3.264,0 -5.07733,1.269334 -1.72267,1.269333 -1.72267,3.173334 0,1.994668 2.62933,3.173335 2.62934,1.178667 6.98134,2.176001 4.71467,1.088 8.61334,2.448001 3.98933,1.269333 6.34667,3.898668 2.35733,2.538667 2.35733,7.344003 0.0907,4.170668 -2.176,7.525336 -2.26667,3.354668 -6.528,5.258669 -4.26134,1.904 -10.06401,1.904 z"
       style="font-style:normal;font-variant:normal;font-weight:bold;font-stretch:normal;font-size:90.6667px;fill:#334155;fill-opacity:1"
       id="path986" />
    <path
       d="m 376.80444,88.580981 q -6.80001,0 -12.05868,-2.901334 -5.25866,-2.901335 -8.25067,-8.160003 -2.992,-5.258669 -2.992,-12.149338 0,-6.981336 2.90134,-12.421339 2.992,-5.440002 8.16,-8.432003 5.25867,-3.082668 12.33067,-3.082668 6.61867,0 11.69601,2.901335 5.07733,2.901334 7.888,7.978669 2.90133,4.986669 2.90133,11.152005 0,0.997334 -0.0907,2.085334 0,1.088 -0.0907,2.266668 h -34.18135 q 0.36267,5.258668 3.62667,8.250669 3.35467,2.992002 8.06934,2.992002 3.536,0 5.89333,-1.541334 2.44801,-1.632001 3.62667,-4.170669 h 11.78667 q -1.26933,4.261335 -4.26133,7.797337 -2.90134,3.445334 -7.25334,5.440002 -4.26133,1.994667 -9.70133,1.994667 z m 0.0907,-37.717348 q -4.26133,0 -7.52533,2.448001 -3.26401,2.357334 -4.17067,7.253336 h 22.39467 q -0.272,-4.442668 -3.264,-7.072002 -2.992,-2.629335 -7.43467,-2.629335 z"
       style="font-style:normal;font-variant:normal;font-weight:bold;font-stretch:normal;font-size:90.6667px;fill:#334155;fill-opacity:1"
       id="path988" />
    <path
       d="M 409.1724,87.492981 V 42.522297 h 10.24534 l 0.90667,7.616003 q 2.08533,-3.989335 5.984,-6.34667 3.98934,-2.357334 9.33867,-2.357334 8.34134,0 12.96534,5.258669 4.624,5.258669 4.624,15.413339 V 87.492981 H 441.63108 V 63.194305 q 0,-5.802669 -2.35733,-8.885337 -2.35734,-3.082668 -7.344,-3.082668 -4.89601,0 -8.06934,3.445335 -3.08267,3.445334 -3.08267,9.61067 v 23.210676 z"
       style="font-style:normal;font-variant:normal;font-weight:bold;font-stretch:normal;font-size:90.6667px;fill:#334155;fill-opacity:1"
       id="path990" />
    <path
       d="m 484.96975,88.580981 q -6.34667,0 -11.33334,-3.082667 -4.98667,-3.082668 -7.888,-8.432004 -2.90134,-5.349335 -2.90134,-12.149338 0,-6.800003 2.90134,-12.058671 2.90133,-5.349336 7.888,-8.341337 4.98667,-3.082668 11.33334,-3.082668 5.07733,0 8.88533,1.904001 3.80801,1.904001 6.16534,5.349335 V 22.212955 h 11.60534 v 65.280026 h -10.33601 l -1.26933,-6.437336 q -2.176,2.992001 -5.80267,5.258669 -3.536,2.266667 -9.248,2.266667 z m 2.448,-10.15467 q 5.62133,0 9.15734,-3.717335 3.62666,-3.808002 3.62666,-9.701337 0,-5.893336 -3.62666,-9.610671 -3.53601,-3.808001 -9.15734,-3.808001 -5.53067,0 -9.15734,3.717335 -3.62667,3.717334 -3.62667,9.61067 0,5.893336 3.62667,9.701337 3.62667,3.808002 9.15734,3.808002 z"
       style="font-style:normal;font-variant:normal;font-weight:bold;font-stretch:normal;font-size:90.6667px;fill:#334155;fill-opacity:1"
       id="path992" />
  </g>
</svg>
